<svg width="153" height="952" viewBox="0 0 153 952" fill="none" xmlns="http://www.w3.org/2000/svg">
<g clip-path="url(#clip0_1481_337)">
<g clip-path="url(#clip1_1481_337)">
<path d="M35.642 96.9483L44.5587 97.1361C41.4856 96.0563 38.5056 94.7418 35.642 93.1925V96.9483ZM49.0752 95.7042V96.9483L44.5587 97.1361C53.0563 100.07 60.8323 100.469 66.606 98.8263C61.973 98.8732 55.9432 98.216 49.0752 95.7042ZM144.272 68.662C147.974 68.662 151.001 65.6338 151.001 61.8779C151.001 58.1221 147.997 56.1267 144.272 56.1267C140.571 56.1267 137.544 58.1455 137.544 61.8779C137.544 65.6103 140.547 68.662 144.272 68.662ZM137.521 96.9483H151.001V71.0094H137.521V96.9483ZM120.362 96.9483H133.842V51.1033L120.362 57.5117V96.9483ZM113.145 68.9202C108.908 64.6479 101.411 64.9061 101.411 64.9061C101.411 64.9061 93.8916 64.6479 89.6777 68.9202C85.4405 73.1925 85.7665 76.8779 85.7665 81.2676C85.7665 85.6573 85.4405 89.3192 89.6777 93.5915C93.9149 97.8638 101.411 97.6056 101.411 97.6056C101.411 97.6056 108.931 97.8638 113.145 93.5915C117.382 89.3192 117.056 85.6573 117.056 81.2676C117.033 76.8544 117.359 73.169 113.145 68.9202ZM103.879 85.7981C103.879 86.6432 103.46 88.7324 101.388 88.7324C99.3162 88.7324 98.8971 86.6432 98.8971 85.7981V76.3145C98.8971 74.2723 100.597 73.7559 101.388 73.7559C102.18 73.7559 103.879 74.2488 103.879 76.3145V85.7981ZM79.1546 68.9202C74.9174 64.6479 67.4209 64.9061 67.4209 64.9061C67.4209 64.9061 59.9243 64.6479 55.6871 68.9202C55.2448 69.3662 54.8257 69.8357 54.4532 70.3286C45.5598 63.3803 37.5743 59.4131 30.6831 55.9859V51.1267L25.4448 53.615C12.7798 48.4272 4.72446 49.3427 2.79212 53.6385C2.79212 53.6385 -3.00491 61.338 17.1799 79.6479V96.9483H30.6598V90.2347C29.1465 89.2488 27.6332 88.1925 26.1432 87.0422C22.6976 84.4131 19.7641 81.9718 17.2032 79.6713V72.3944C20.2531 75.8451 24.304 79.7652 29.6354 84.2019L30.6831 85.0469V78.0516C30.6831 76.4319 31.0788 73.7793 33.1974 73.7793C35.316 73.7793 35.6652 75.399 35.6652 77.3005V88.7324C39.8559 91.5962 44.3491 93.9202 49.0985 95.6807V73.6385C49.0985 69.2488 45.9788 64.8591 39.6463 64.8591C35.9679 64.8357 32.5456 66.784 30.6831 70V57.2535C40.4379 62.1596 50.216 68.169 53.941 70.939C51.5663 74.3662 51.7759 77.5352 51.7759 81.1972C51.7759 85.5868 51.4499 89.2488 55.6871 93.5211C59.9243 97.7934 67.4209 97.5352 67.4209 97.5352C67.4209 97.5352 74.9407 97.7934 79.1546 93.5211C83.3918 89.2488 83.0426 85.5868 83.0426 81.1972C83.0426 76.8544 83.3918 73.169 79.1546 68.9202ZM17.1799 57.5117V72.3709C5.84196 59.5775 8.12353 54.5305 8.98493 53.8028C12.1279 51.1267 17.7154 51.9249 23.9781 54.2958L17.1799 57.5117ZM69.912 85.7981C69.912 86.6432 69.4929 88.7324 67.4209 88.7324C65.3488 88.7324 64.9298 86.6432 64.9298 85.7981V76.3145C64.9298 74.2723 66.6293 73.7559 67.4209 73.7559C68.2124 73.7559 69.912 74.2488 69.912 76.3145V85.7981Z" fill="white"/>
</g>
<g clip-path="url(#clip2_1481_337)">
<path d="M7 161.67H28.1215V218.745C28.1215 227.798 32.1938 233.185 35.5059 235.428C32.058 238.463 21.6059 241.143 13.7328 234.662C9.11758 230.833 7 224.461 7 218.527V161.67ZM138.914 209.119V203.102H145.376V182.099H138.29C135.548 169.437 124.39 160.029 111.06 160.029C95.6939 160.029 83.1785 172.609 83.1785 188.116V237.123C87.5223 237.752 92.7891 237.041 97.2143 233.295C101.857 229.466 103.947 223.121 103.947 217.159V215.327H114.481V194.324H103.947V187.952C103.947 178.489 118.119 178.489 118.119 187.952V209.037C118.119 224.516 130.607 237.123 146 237.123V216.202C142.063 216.202 138.914 213.002 138.914 209.119ZM59.0164 182.044V212.948C59.0164 217.159 52.5551 217.159 52.5551 212.948V182.044H31.7051V218.335C31.7051 224.844 33.877 233.103 43.9219 235.811C53.9668 238.491 59.7223 232.912 59.7223 232.912C59.1521 236.576 55.7857 239.284 50.2475 239.831C46.0395 240.268 40.6912 238.846 38.0307 237.698V256.923C44.8449 258.974 52.0121 259.603 59.0979 258.209C71.8848 255.72 79.9479 244.972 79.9479 230.642V181.908H59.0164V182.044Z" fill="white"/>
</g>
<g clip-path="url(#clip3_1481_337)">
<path d="M151 319.212C132.189 331.83 130.187 340.988 128.557 343.79C126.997 346.662 125.833 357.986 123.132 363.471C120.408 369.027 110.514 373.406 107.743 375.242C105.02 377.078 101.155 384.212 97.9886 390.356C72.8216 389.32 59.0158 399.49 37.6436 412.392C44.4883 410.108 47.7244 408.46 47.7244 408.46C69.6553 399.985 80.1552 392.381 113.168 396.877C113.424 396.877 113.61 397.019 113.82 397.066C114.728 397.584 115.054 398.69 114.542 399.608L101.993 422.162C101.411 423.268 100.177 423.857 98.9431 423.598C69.4225 417.995 46.118 427.67 24.6992 427.976C7.61078 428.235 2 420.09 2 419.713C2 419.454 2.13969 419.313 2.39578 419.313C2.39578 419.313 11.3125 419.313 26.3988 415.711C43.5337 382.681 58.8062 371.122 75.4291 371.122C75.4291 371.122 92.1217 371.122 96.5219 385.695C101.83 376.349 103.11 374.112 103.11 374.112C104.344 371.899 111.259 355.938 123.225 340.824C135.215 325.757 144.272 322.013 151 319.212Z" fill="white"/>
</g>
<g clip-path="url(#clip4_1481_337)">
<g clip-path="url(#clip5_1481_337)">
<path d="M40.4157 492.705L30.3349 494.795L30.2883 527.159C30.2883 533.136 34.898 537 41.021 537C44.4201 537 46.9111 536.386 48.2847 535.659V527.977C46.9577 528.5 40.439 530.364 40.439 524.409V510.045H48.2847V501.455H40.439L40.4157 492.705ZM61.1593 504.432L60.5307 501.455H51.5907V536.273H61.9043V512.841C64.3488 509.705 68.4696 510.318 69.7966 510.727V501.455C68.3997 500.977 63.5805 500.091 61.1593 504.432ZM82.6479 488L72.2644 490.159V498.386L82.6479 496.227V488ZM12.4549 511.705C12.4549 510.136 13.8052 509.523 15.9704 509.5C19.1133 509.5 23.1177 510.432 26.2607 512.091V502.591C22.8383 501.273 19.416 500.75 15.9937 500.75C7.6124 500.75 2.0249 505.023 2.0249 512.159C2.0249 523.341 17.7397 521.523 17.7397 526.341C17.7397 528.205 16.0868 528.818 13.7819 528.818C10.3596 528.818 5.93615 527.432 2.46725 525.591V534.682C6.30865 536.295 10.1966 536.977 13.7587 536.977C22.3494 536.977 28.2629 533.386 28.2629 526.114C28.2629 514.091 12.4549 516.25 12.4549 511.705ZM151.002 519.273C151.002 508.932 145.88 500.773 136.055 500.773C126.23 500.773 120.247 508.932 120.247 519.205C120.247 531.364 127.301 536.977 137.359 536.977C142.294 536.977 145.996 535.886 148.813 534.364V526.773C145.996 528.159 142.76 529 138.663 529C134.635 529 131.096 527.614 130.631 522.886H150.862C150.908 522.364 151.002 520.25 151.002 519.273ZM130.537 515.455C130.537 510.909 133.401 509 135.985 509C138.523 509 141.223 510.909 141.223 515.455H130.537ZM104.253 500.773C100.202 500.773 97.5944 502.636 96.151 503.932L95.6155 501.432H86.5126V547.977L96.8494 545.841L96.8727 534.432C98.3627 535.5 100.574 536.977 104.183 536.977C111.586 536.977 118.338 531.705 118.338 518.886C118.361 507.159 111.517 500.773 104.253 500.773ZM101.785 528.614C99.3638 528.614 97.9204 527.75 96.9193 526.705L96.8494 511.705C97.9204 510.545 99.4104 509.705 101.785 509.705C105.557 509.705 108.164 513.841 108.164 519.114C108.187 524.545 105.626 528.614 101.785 528.614ZM72.2877 536.273H82.6711V501.455H72.2877V536.273Z" fill="white"/>
</g>
</g>
<g clip-path="url(#clip6_1481_337)">
<g clip-path="url(#clip7_1481_337)">
<path d="M43.2329 641.37C43.0613 646.769 45.7591 649.159 45.8258 650.678C45.7941 650.987 45.6888 651.283 45.5188 651.543C45.3488 651.803 45.119 652.019 44.8487 652.172L41.7983 654.307C41.4035 654.584 40.9381 654.743 40.4565 654.765C40.3541 654.76 38.5047 655.201 35.5758 648.661C33.7888 650.892 31.5152 652.684 28.929 653.901C26.3427 655.117 23.5124 655.726 20.6547 655.68C16.7749 655.892 6.26032 653.478 6.8013 642.283C6.42238 633.159 14.9184 627.492 23.7052 627.971C25.3972 627.975 28.8528 628.059 34.9037 629.465V625.742C35.5448 619.436 31.4005 614.543 24.2247 615.277C23.6527 615.279 19.6013 615.157 13.3002 617.686C11.5462 618.492 11.3222 618.358 10.7383 618.358C8.97238 618.358 9.69924 613.239 10.0377 612.59C11.2793 611.065 18.5837 608.217 25.7523 608.257C30.5455 607.833 35.313 609.313 39.0242 612.376C40.5329 614.064 41.6838 616.04 42.4076 618.184C43.1314 620.329 43.4129 622.599 43.2353 624.856L43.2329 641.37ZM22.6375 649.09C30.3662 648.978 33.6383 644.33 34.3842 641.828C34.9705 639.433 34.8727 637.917 34.8727 635.297C32.5682 634.744 29.2508 634.141 25.4449 634.137C21.8344 633.865 15.2401 635.478 15.4975 641.826C15.202 645.827 18.1476 649.309 22.6375 649.09ZM63.3708 654.584C61.4976 654.756 60.6254 653.426 60.3489 652.112L48.4807 612.869C48.2495 612.207 48.097 611.523 48.0231 610.824C47.9793 610.536 48.0516 610.243 48.2241 610.008C48.3966 609.774 48.6552 609.617 48.943 609.573C49.0002 609.564 48.4354 609.573 54.2456 609.573C56.338 609.363 57.0196 611.01 57.2365 612.045L65.7492 645.61L73.6518 612.045C73.7781 611.277 74.3525 609.406 76.7023 609.604H80.7918C81.309 609.561 83.4395 609.485 83.8137 612.076L91.7783 646.07L100.565 612.076C100.679 611.556 101.213 609.366 103.587 609.604H108.287C108.489 609.573 109.752 609.411 109.538 611.649C109.435 612.09 110.35 609.108 96.9664 652.143C96.6924 653.457 95.8177 654.787 93.9446 654.615H89.4904C86.8832 654.889 86.509 652.313 86.4685 652.053L78.5659 619.369L70.7539 652.019C70.7157 652.279 70.3416 654.856 67.732 654.582H63.3708V654.584ZM128.546 655.926C127.145 655.928 120.462 655.854 114.876 652.997C114.32 652.761 113.846 652.365 113.514 651.86C113.183 651.355 113.009 650.762 113.015 650.158V647.596C113.015 645.582 114.492 645.951 115.119 646.192C117.512 647.16 119.047 647.894 121.985 648.48C130.719 650.275 134.561 647.932 135.502 647.412C138.636 645.551 138.884 641.292 136.754 639.082C134.256 636.987 133.064 636.909 124.092 634.077C122.986 633.77 113.677 630.833 113.656 621.597C113.51 614.867 119.626 608.207 130.224 608.262C133.243 608.26 141.289 609.247 143.467 611.985C143.789 612.483 143.948 613.07 143.925 613.663V616.073C143.925 617.131 143.538 617.66 142.764 617.66C140.927 617.455 137.666 614.998 131.048 615.098C129.406 615.012 121.542 615.315 121.894 621.049C121.792 625.568 128.236 627.263 128.973 627.458C137.662 630.073 140.567 630.507 144.015 634.508C148.1 639.812 145.898 646.02 145.052 647.722C140.505 656.658 128.746 655.931 128.546 655.926ZM138.126 680.918C121.437 693.245 97.2095 699.807 76.5235 699.807C48.6119 699.991 21.6409 689.727 0.91247 671.032C-0.643745 669.628 0.728965 667.705 2.62121 668.775C25.6152 681.929 51.6492 688.841 78.1393 688.824C97.9215 688.718 117.488 684.705 135.715 677.014C138.522 675.823 140.903 678.873 138.126 680.918ZM145.083 672.984C142.947 670.238 130.955 671.702 125.586 672.343C123.968 672.526 123.694 671.123 125.159 670.086C134.709 663.372 150.393 665.295 152.194 667.552C153.993 669.809 151.706 685.526 142.766 693.033C141.394 694.194 140.08 693.581 140.691 692.056C142.702 686.991 147.218 675.732 145.083 672.984Z" fill="white"/>
</g>
</g>
<g clip-path="url(#clip8_1481_337)">
<path d="M134.19 814.555C129.495 814.555 125.363 816.515 122.327 819.583C111.152 811.771 96.0953 806.743 79.4111 806.205L88.0819 766.736L115.691 772.998C115.691 779.829 121.2 785.396 127.961 785.396C134.848 785.396 140.388 779.671 140.388 772.84C140.388 766.009 134.879 760.285 127.961 760.285C123.141 760.285 118.977 763.226 116.911 767.242L86.4228 760.411C84.889 760 83.3865 761.107 82.9796 762.657L73.4636 806.174C56.9046 806.869 42.0046 811.898 30.7983 819.71C27.7619 816.515 23.4735 814.555 18.7781 814.555C1.37389 814.555 -4.32317 838.147 11.6098 846.212C11.0464 848.71 10.7959 851.367 10.7959 854.024C10.7959 880.526 40.3455 902 76.6252 902C113.061 902 142.611 880.526 142.611 854.024C142.611 851.367 142.329 848.584 141.64 846.085C157.26 837.989 151.501 814.555 134.19 814.555ZM36.8709 847.888C36.8709 840.93 42.3802 835.333 49.2981 835.333C56.0594 835.333 61.5686 840.899 61.5686 847.888C61.5686 854.719 56.0594 860.285 49.2981 860.285C42.4115 860.317 36.8709 854.719 36.8709 847.888ZM103.952 877.458C92.5581 888.97 60.4104 888.97 49.0163 877.458C47.7642 876.351 47.7642 874.391 49.0163 873.126C50.1119 872.019 52.0527 872.019 53.1483 873.126C61.8504 882.139 90.7113 882.297 99.789 873.126C100.885 872.019 102.825 872.019 103.921 873.126C105.204 874.391 105.204 876.351 103.952 877.458ZM103.702 860.317C96.9405 860.317 91.4312 854.751 91.4312 847.92C91.4312 840.962 96.9405 835.364 103.702 835.364C110.588 835.364 116.129 840.93 116.129 847.92C116.098 854.719 110.588 860.317 103.702 860.317Z" fill="white"/>
</g>
</g>
<defs>
<clipPath id="clip0_1481_337">
<rect width="153" height="952" fill="white"/>
</clipPath>
<clipPath id="clip1_1481_337">
<rect width="149" height="50" fill="white" transform="translate(2 50)"/>
</clipPath>
<clipPath id="clip2_1481_337">
<rect width="139" height="99" fill="white" transform="translate(7 160)"/>
</clipPath>
<clipPath id="clip3_1481_337">
<rect width="149" height="109" fill="white" transform="translate(2 319)"/>
</clipPath>
<clipPath id="clip4_1481_337">
<rect width="149" height="60" fill="white" transform="translate(2 488)"/>
</clipPath>
<clipPath id="clip5_1481_337">
<rect width="149" height="60" fill="white" transform="translate(2 488)"/>
</clipPath>
<clipPath id="clip6_1481_337">
<rect width="151" height="92" fill="white" transform="translate(1 608)"/>
</clipPath>
<clipPath id="clip7_1481_337">
<rect width="153" height="92" fill="white" transform="translate(0 608)"/>
</clipPath>
<clipPath id="clip8_1481_337">
<rect width="149" height="142" fill="white" transform="translate(2 760)"/>
</clipPath>
</defs>
</svg>
